<svg xmlns="http://www.w3.org/2000/svg" width="32" height="32" viewBox="0 0 32 32" role="img" aria-label="Northstar">
  <rect width="32" height="32" rx="8" fill="#aa3bff" />
  <g transform="translate(4 4) scale(0.75)" fill="none">
    <circle cx="16" cy="16" r="13.5" stroke="#fff" stroke-width="1.6" opacity="0.32" />
    <path d="M16 1.2v3.4" stroke="#fff" stroke-width="1.8" stroke-linecap="round" />
    <path d="M16 5.2c.9 5.2 2.1 7.4 6.6 8.9-4.5 1-6 3-6.6 8.7-.7-5.7-2.2-7.7-6.6-8.7 4.5-1.5 5.7-3.7 6.6-8.9Z" fill="#fff" />
    <path d="M16 22.8c.4 3.3 1.1 4.8 3.4 5.8-2.3.5-3 1.6-3.4 4-.4-2.4-1.1-3.5-3.4-4 2.3-1 3-2.5 3.4-5.8Z" fill="#fff" opacity="0.55" />
  </g>
</svg>
